<svg viewBox="0 0 1024 1024">
<path d="M268.780559 398.681368a47.23545 47.23545 0 0 1 5.432077 60.303925l-5.510803 6.534237-118.875882 118.797157a180.754322 180.754322 0 0 0 240.113537 269.950596l10.470525-9.368364 124.150508-123.756879a47.23545 47.23545 0 0 1 72.112786 60.38265l-5.510802 6.534237-124.622862 124.30796A275.225222 275.225222 0 0 1 72.359813 528.421404l11.179056-11.493959 118.403528-118.246077a47.23545 47.23545 0 0 1 66.838162 0z m398.352295-70.774449a51.171737 51.171737 0 0 1 5.353351 66.050904l-5.353351 6.29806-266.644115 266.644115a51.171737 51.171737 0 0 1-77.781041-66.050904l5.432076-6.29806L594.705164 327.906919a51.171737 51.171737 0 0 1 72.42769 0z m260.897135-243.813647a275.303948 275.303948 0 0 1 4.408642 377.647422l-11.257782 11.572685-130.920922 126.118652a47.23545 47.23545 0 0 1-71.089353-61.563537l5.510803-6.455511 130.920922-126.118652A180.754322 180.754322 0 0 0 614.386601 136.288444l-10.076896 8.974735L467.720529 276.892633a47.23545 47.23545 0 0 1-71.089352-61.563536l5.510802-6.455512L538.809881 77.322857a275.225222 275.225222 0 0 1 389.220108 6.770415z" fill="#252525" p-id="935"></path>
</svg>